<svg xmlns="http://www.w3.org/2000/svg" viewBox="0 0 200 130">
    <!-- Left Tassels -->
    <path fill="#E3883C" d="M24.8 45.4c-1.3-1.6-3.5-2.1-5.3-1.1 -1.8 1-2.6 3.1-1.6 4.9l.4.6c1.3 1.6 3.5 2.1 5.3 1.1c1.8-1 2.6-3.1 1.6-4.9l-.4-.6z"/>
    <path fill="#E3883C" d="M20.9 59.8c-1.3-1.6-3.5-2.1-5.3-1.1 -1.8 1-2.6 3.1-1.6 4.9l.4.6c1.3 1.6 3.5 2.1 5.3 1.1c1.8-1 2.6-3.1 1.6-4.9l-.4-.6z"/>
    <path fill="#E3883C" d="M17 74.2c-1.3-1.6-3.5-2.1-5.3-1.1 -1.8 1-2.6 3.1-1.6 4.9l.4.6c1.3 1.6 3.5 2.1 5.3 1.1c1.8-1 2.6-3.1 1.6-4.9l-.4-.6z"/>

    <!-- Right Tassels -->
    <path fill="#E3883C" d="M178.4 46.2c1.3-1.6 3.5-2.1 5.3-1.1c1.8 1 2.6 3.1 1.6 4.9l-.4.6c-1.3 1.6-3.5 2.1-5.3 1.1c-1.8-1-2.6-3.1-1.6-4.9l.4-.6z"/>
    <path fill="#E3883C" d="M182.3 60.6c1.3-1.6 3.5-2.1 5.3-1.1c1.8 1 2.6 3.1 1.6 4.9l-.4.6c-1.3 1.6-3.5 2.1-5.3 1.1c-1.8-1-2.6-3.1-1.6-4.9l.4-.6z"/>
    <path fill="#E3883C" d="M186.2 75c1.3-1.6 3.5-2.1 5.3-1.1c1.8 1 2.6 3.1 1.6 4.9l-.4.6c-1.3 1.6-3.5 2.1-5.3 1.1c-1.8-1-2.6-3.1-1.6-4.9l-.4-.6z"/>
    <path fill="#E3883C" d="M174.5 31.8c1.3-1.6 3.5-2.1 5.3-1.1c1.8 1 2.6 3.1 1.6 4.9l-.4.6c-1.3 1.6-3.5 2.1-5.3 1.1c-1.8-1-2.6-3.1-1.6-4.9l.4-.6z"/>
    
    <!-- Carpet Body -->
    <path fill="#763722" d="m171.1 29.1c-22-12-58.4-14.7-90.1-5.2 -30.3 9-55.6 28.5-55.6 28.5l9.6 17.1c0 0 22.5-16.5 52-25.3 31.2-9.3 69.3-6.5 92.5 6.7l16-20.7s-1.8-1-24.4-21.1z"/>
    <path fill="#984D34" d="m171.1 29.1c-22.7 11.2-59.1 13.9-90.8 4.4 -30.3-9-55.6-28.5-55.6-28.5v32.9c0 .1 25.3 22.4 57.1 32.3 31.8 9.9 69.5 7.9 92.3-5l16-20.7c.1 0-25.1-20.4-53-31.5 -2.1-.8-4.1-1.5-6.2-2.2l-1.1-.3z"/>
    <path fill="#984D34" d="m35.1 82.8c22.5 11.2 58.7 13.8 90.2 4.4 30-8.9 54.9-28.2 54.9-28.2l-9.6-17.1c0 0-22.3 16.5-51.6 25.2 -30.9 9.2-68.8 6.5-92-6.6l-16.1 20.9s1.2 .9 24.2 21.4z"/>
    <path fill="#763722" d="m35.1 82.8c22.7-11.2 59.1-13.9 90.8-4.4 30.3 9 55.6 28.5 55.6 28.5v-32.9c0-.1-25.3-22.4-57.1-32.3 -31.8-9.9-69.5-7.9-92.3 5l-16 20.7c-.1 0 25.1 20.4 53 31.5 2.1.8 4.1 1.5 6.2 2.2l1.1.3z"/>

    <!-- Stripes -->
    <g stroke="#D57E2A" stroke-width="4" stroke-linecap="round" fill="none">
        <path d="M55 33c16-5 50-7 74 2" />
        <path d="M70 30c16-5 50-7 74 2" />
        <path d="M55 98c16 5 50 7 74-2" />
        <path d="M70 101c16 5 50 7 74-2" />
    </g>
</svg>